HIERARCHY
ROOT Hips
{
  OFFSET 126.96 91.9987 35.2002
  CHANNELS 6 Xposition Yposition Zposition Zrotation Xrotation Yrotation
  JOINT RightUpLeg
  {
    OFFSET -9.21262 -1.62705 0.0892923
    CHANNELS 3 Zrotation Xrotation Yrotation
    JOINT RightLeg
    {
      OFFSET 0.0960154 -41.8606 0.153467
      CHANNELS 3 Zrotation Xrotation Yrotation
      JOINT RightFoot
      {
        OFFSET 1.33859 -39.7491 3.70458
        CHANNELS 3 Zrotation Xrotation Yrotation
        End Site
        {
          OFFSET 0 -7.69 17.5
        }
      }
    }
  }
  JOINT LeftUpLeg
  {
    OFFSET 9.28909 -1.62806 0.0108209
    CHANNELS 3 Zrotation Xrotation Yrotation
    JOINT LeftLeg
    {
      OFFSET 0.0929201 -41.8886 0.0218006
      CHANNELS 3 Zrotation Xrotation Yrotation
      JOINT LeftFoot
      {
        OFFSET -1.57781 -41.3397 -3.31563
        CHANNELS 3 Zrotation Xrotation Yrotation
        End Site
        {
          OFFSET 0 -7.69 17.5
        }
      }
    }
  }
  JOINT Spine
  {
    OFFSET 0.0128959 14.3037 0.0259321
    CHANNELS 3 Zrotation Xrotation Yrotation
    JOINT Spine1
    {
      OFFSET 0.0143034 9.71252 0.015398
      CHANNELS 3 Zrotation Xrotation Yrotation
      JOINT Spine2
      {
        OFFSET 0.0468817 10.117 -0.0314137
        CHANNELS 3 Zrotation Xrotation Yrotation
        JOINT Spine3
        {
          OFFSET 0.0102655 9.71178 0.00221616
          CHANNELS 3 Zrotation Xrotation Yrotation
          JOINT Neck
          {
            OFFSET -0.0402596 10.3794 0.0231037
            CHANNELS 3 Zrotation Xrotation Yrotation
            JOINT Head
            {
              OFFSET -0.03453 9.49168 0.0708427
              CHANNELS 3 Zrotation Xrotation Yrotation
              End Site
              {
                OFFSET 0 15.95 0
              }
            }
          }
          JOINT RightShoulder
          {
            OFFSET -3.17991 6.93495 0.0309862
            CHANNELS 3 Zrotation Xrotation Yrotation
            JOINT RightArm
            {
              OFFSET -12.8253 0.0342167 0.035901
              CHANNELS 3 Zrotation Xrotation Yrotation
              JOINT RightForeArm
              {
                OFFSET -26.4423 -0.000685918 0.00421057
                CHANNELS 3 Zrotation Xrotation Yrotation
                JOINT RightHand
                {
                  OFFSET -25.9842 -0.0662606 -0.0268032
                  CHANNELS 3 Zrotation Xrotation Yrotation
                  JOINT RightHandThumb1
                  {
                    OFFSET -2.48905 0.190105 3.12053
                    CHANNELS 3 Zrotation Xrotation Yrotation
                    JOINT RightHandThumb2
                    {
                      OFFSET -3.68274 0 0
                      CHANNELS 3 Zrotation Xrotation Yrotation
                      JOINT RightHandThumb3
                      {
                        OFFSET -2.55832 0 0
                        CHANNELS 3 Zrotation Xrotation Yrotation
                        End Site
                        {
                          OFFSET -2.194 0 0
                        }
                      }
                    }
                  }
                  JOINT RightInHandIndex
                  {
                    OFFSET -3.22368 0.508421 1.97842
                    CHANNELS 3 Zrotation Xrotation Yrotation
                    JOINT RightHandIndex1
                    {
                      OFFSET -5.21684 -0.091368 0.999158
                      CHANNELS 3 Zrotation Xrotation Yrotation
                      JOINT RightHandIndex2
                      {
                        OFFSET -3.61937 0 0
                        CHANNELS 3 Zrotation Xrotation Yrotation
                        JOINT RightHandIndex3
                        {
                          OFFSET -2.0521 0 0
                          CHANNELS 3 Zrotation Xrotation Yrotation
                          End Site
                          {
                            OFFSET -1.805 0 0
                          }
                        }
                      }
                    }
                  }
                  JOINT RightInHandMiddle
                  {
                    OFFSET -3.38211 0.517263 0.756737
                    CHANNELS 3 Zrotation Xrotation Yrotation
                    JOINT RightHandMiddle1
                    {
                      OFFSET -5.17411 -0.084 0.313895
                      CHANNELS 3 Zrotation Xrotation Yrotation
                      JOINT RightHandMiddle2
                      {
                        OFFSET -3.94947 0 0
                        CHANNELS 3 Zrotation Xrotation Yrotation
                        JOINT RightHandMiddle3
                        {
                          OFFSET -2.47579 0 0
                          CHANNELS 3 Zrotation Xrotation Yrotation
                          End Site
                          {
                            OFFSET -1.975 0 0
                          }
                        }
                      }
                    }
                  }
                  JOINT RightInHandRing
                  {
                    OFFSET -3.36516 0.537895 -0.128947
                    CHANNELS 3 Zrotation Xrotation Yrotation
                    JOINT RightHandRing1
                    {
                      OFFSET -4.63474 -0.022105 -0.478947
                      CHANNELS 3 Zrotation Xrotation Yrotation
                      JOINT RightHandRing2
                      {
                        OFFSET -3.44238 0 0
                        CHANNELS 3 Zrotation Xrotation Yrotation
                        JOINT RightHandRing3
                        {
                          OFFSET -2.3881 0 0
                          CHANNELS 3 Zrotation Xrotation Yrotation
                          End Site
                          {
                            OFFSET -1.857 0 0
                          }
                        }
                      }
                    }
                  }
                  JOINT RightInHandPinky
                  {
                    OFFSET -3.16105 0.469368 -1.20179
                    CHANNELS 3 Zrotation Xrotation Yrotation
                    JOINT RightHandPinky1
                    {
                      OFFSET -4.14105 -0.022105 -1.09053
                      CHANNELS 3 Zrotation Xrotation Yrotation
                      JOINT RightHandPinky2
                      {
                        OFFSET -2.75653 0 0
                        CHANNELS 3 Zrotation Xrotation Yrotation
                        JOINT RightHandPinky3
                        {
                          OFFSET -1.74189 0 0
                          CHANNELS 3 Zrotation Xrotation Yrotation
                          End Site
                          {
                            OFFSET -1.645 0 0
                          }
                        }
                      }
                    }
                  }
                }
              }
            }
          }
          JOINT LeftShoulder
          {
            OFFSET 3.21113 6.90952 -0.0469957
            CHANNELS 3 Zrotation Xrotation Yrotation
            JOINT LeftArm
            {
              OFFSET 12.7919 -0.0331125 -0.0859637
              CHANNELS 3 Zrotation Xrotation Yrotation
              JOINT LeftForeArm
              {
                OFFSET 26.4755 -0.0026531 -0.0242133
                CHANNELS 3 Zrotation Xrotation Yrotation
                JOINT LeftHand
                {
                  OFFSET 25.9936 -0.03295 -0.105102
                  CHANNELS 3 Zrotation Xrotation Yrotation
                  JOINT LeftHandThumb1
                  {
                    OFFSET 2.48905 0.190105 3.12053
                    CHANNELS 3 Zrotation Xrotation Yrotation
                    JOINT LeftHandThumb2
                    {
                      OFFSET 3.68274 0 0
                      CHANNELS 3 Zrotation Xrotation Yrotation
                      JOINT LeftHandThumb3
                      {
                        OFFSET 2.55832 0 0
                        CHANNELS 3 Zrotation Xrotation Yrotation
                        End Site
                        {
                          OFFSET 2.194 0 0
                        }
                      }
                    }
                  }
                  JOINT LeftInHandIndex
                  {
                    OFFSET 3.22368 0.508421 1.97842
                    CHANNELS 3 Zrotation Xrotation Yrotation
                    JOINT LeftHandIndex1
                    {
                      OFFSET 5.21684 -0.091368 0.999158
                      CHANNELS 3 Zrotation Xrotation Yrotation
                      JOINT LeftHandIndex2
                      {
                        OFFSET 3.61937 0 0
                        CHANNELS 3 Zrotation Xrotation Yrotation
                        JOINT LeftHandIndex3
                        {
                          OFFSET 2.0521 0 0
                          CHANNELS 3 Zrotation Xrotation Yrotation
                          End Site
                          {
                            OFFSET 1.805 0 0
                          }
                        }
                      }
                    }
                  }
                  JOINT LeftInHandMiddle
                  {
                    OFFSET 3.38211 0.517263 0.756737
                    CHANNELS 3 Zrotation Xrotation Yrotation
                    JOINT LeftHandMiddle1
                    {
                      OFFSET 5.17411 -0.084 0.313895
                      CHANNELS 3 Zrotation Xrotation Yrotation
                      JOINT LeftHandMiddle2
                      {
                        OFFSET 3.94947 0 0
                        CHANNELS 3 Zrotation Xrotation Yrotation
                        JOINT LeftHandMiddle3
                        {
                          OFFSET 2.47579 0 0
                          CHANNELS 3 Zrotation Xrotation Yrotation
                          End Site
                          {
                            OFFSET 1.975 0 0
                          }
                        }
                      }
                    }
                  }
                  JOINT LeftInHandRing
                  {
                    OFFSET 3.36516 0.537895 -0.128947
                    CHANNELS 3 Zrotation Xrotation Yrotation
                    JOINT LeftHandRing1
                    {
                      OFFSET 4.63474 -0.022105 -0.478947
                      CHANNELS 3 Zrotation Xrotation Yrotation
                      JOINT LeftHandRing2
                      {
                        OFFSET 3.44238 0 0
                        CHANNELS 3 Zrotation Xrotation Yrotation
                        JOINT LeftHandRing3
                        {
                          OFFSET 2.3881 0 0
                          CHANNELS 3 Zrotation Xrotation Yrotation
                          End Site
                          {
                            OFFSET 1.857 0 0
                          }
                        }
                      }
                    }
                  }
                  JOINT LeftInHandPinky
                  {
                    OFFSET 3.16105 0.469368 -1.20179
                    CHANNELS 3 Zrotation Xrotation Yrotation
                    JOINT LeftHandPinky1
                    {
                      OFFSET 4.14105 -0.022105 -1.09053
                      CHANNELS 3 Zrotation Xrotation Yrotation
                      JOINT LeftHandPinky2
                      {
                        OFFSET 2.75653 0 0
                        CHANNELS 3 Zrotation Xrotation Yrotation
                        JOINT LeftHandPinky3
                        {
                          OFFSET 1.74189 0 0
                          CHANNELS 3 Zrotation Xrotation Yrotation
                          End Site
                          {
                            OFFSET 1.645 0 0
                          }
                        }
                      }
                    }
                  }
                }
              }
            }
          }
        }
      }
    }
  }
}
MOTION
Frames: 3
Frame Time: 0.00833333
7.483358219049350737e+02 -2.916075467523290277e-01 -8.523972346810069212e-01 -5.062034886826436875e+00 3.686737259385036714e-01 -8.805551937310262645e+00 1.222856880493165477e+01 1.226130790579068197e+01 1.399383977387251754e+01 -3.161546393672311162e+00 -9.475436849453682253e-01 2.592918029275722791e+00 -1.211098921587397292e+00 1.086003556391075264e+01 3.810829708781812819e+00 -3.271657011147549365e+00 1.384168941115980367e+01 -2.338867357092794030e+00 -2.876381957729063910e+00 8.338392272444085096e-01 4.704623760225722151e+00 -2.607682821943607010e+00 -2.808601667421640968e+00 -1.119946234106363292e+00 -1.243561471880111347e+00 -7.641536258145885441e+00 -8.742925926880943166e+00 -4.718923439224665950e-01 -2.223273950834831147e+00 -2.048873910866249037e+00 -7.861954050909016889e-01 -3.270985281972134562e+00 -3.317588652740611099e+00 -1.855661324723159034e-01 -3.115920273131189133e-01 1.017359318206332519e+00 -1.427292672742243695e+00 -1.349170132147780254e+00 1.554826013737022095e+01 -3.373569675055924311e+00 -2.575454023505194812e-01 1.125585626691378849e+01 1.350697295016031751e-01 -1.451500418284174643e+00 3.999851832928502660e-01 -7.960343555186329745e+00 -4.055298850746222428e+00 -4.557016205137226450e+01 -6.217253824493342407e+00 8.431233680111013484e+00 -1.114867817349406067e+02 -1.559709474753446123e+00 1.541688890135471546e+01 9.976384176910710888e-01 0.000000000000000000e+00 0.000000000000000000e+00 0.000000000000000000e+00 4.359136663472217698e-15 1.522414185949480536e-15 0.000000000000000000e+00 -5.245774237344004007e-15 1.479096692311207952e-15 0.000000000000000000e+00 -2.172552197247286210e-15 2.517615711772421023e-15 3.247049451826099674e-15 0.000000000000000000e+00 0.000000000000000000e+00 0.000000000000000000e+00 0.000000000000000000e+00 3.949887255735730903e-16 2.804423689287958811e-15 0.000000000000000000e+00 2.286041114706902836e-15 8.584922804177594525e-15 -2.172552197247286210e-15 2.517615711772421023e-15 3.247049451826099674e-15 0.000000000000000000e+00 -5.012127184118450275e-16 1.004138229364915800e-15 0.000000000000000000e+00 1.728451971074513506e-15 -1.722669882513466316e-15 0.000000000000000000e+00 2.186977474217108752e-15 8.040517416427182318e-15 -2.172552197247286210e-15 2.517615711772421023e-15 3.247049451826099674e-15 0.000000000000000000e+00 0.000000000000000000e+00 0.000000000000000000e+00 0.000000000000000000e+00 1.289608411288346682e-15 -2.907736652923218751e-15 0.000000000000000000e+00 4.678229565984807222e-16 3.791100824707610542e-15 -2.172552197247286210e-15 2.517615711772421023e-15 3.247049451826099674e-15 0.000000000000000000e+00 0.000000000000000000e+00 0.000000000000000000e+00 0.000000000000000000e+00 -2.388316757235824206e-15 -6.333428765434289499e-15 0.000000000000000000e+00 9.975024058083488249e-16 1.434754705016688346e-14 2.864839318698691351e+00 -4.546701091100622705e+00 2.363883682567928801e-01 1.940664874619637459e+01 -1.178919713213636911e+01 -2.846653854648361204e+01 6.245887481597218738e+01 3.051101279141681744e+01 2.837764926303806945e+01 -8.047787309618737339e+00 -5.035595170676810994e+01 -4.892948518505136946e+01 0.000000000000000000e+00 0.000000000000000000e+00 0.000000000000000000e+00 3.149142552190094873e-15 -1.556800035600554451e-15 0.000000000000000000e+00 3.373353441004965456e-16 1.938655492454359273e-16 0.000000000000000000e+00 1.335044393181869913e-17 -5.293305925026243988e-16 4.416284912198319030e-16 0.000000000000000000e+00 0.000000000000000000e+00 0.000000000000000000e+00 0.000000000000000000e+00 2.297220990795867669e-15 1.159268822384991985e-15 0.000000000000000000e+00 -1.722710024218492597e-15 3.986103487563152644e-15 1.335044393181869913e-17 -5.293305925026243988e-16 4.416284912198319030e-16 0.000000000000000000e+00 -2.297026018688053022e-15 -1.623541336053402951e-15 0.000000000000000000e+00 -1.584596486505207146e-15 -1.092248242391923758e-15 0.000000000000000000e+00 -2.856178623117212217e-16 3.400441177483552029e-16 1.335044393181869913e-17 -5.293305925026243988e-16 4.416284912198319030e-16 0.000000000000000000e+00 0.000000000000000000e+00 0.000000000000000000e+00 0.000000000000000000e+00 5.858092378081033198e-16 3.465564167587327584e-15 0.000000000000000000e+00 3.374740833034793988e-15 1.484600225684519223e-16 1.335044393181869913e-17 -5.293305925026243988e-16 4.416284912198319030e-16 0.000000000000000000e+00 0.000000000000000000e+00 0.000000000000000000e+00 0.000000000000000000e+00 3.813776525548903670e-15 -3.826680161081207296e-17 0.000000000000000000e+00 2.486147516734889362e-15 6.048815226968442662e-17
7.483901962336432234e+02 -3.000417252054997652e-01 -7.866735672835593052e-01 -4.823831675884567183e+00 3.252878074577744694e-01 -8.814414771715593844e+00 1.223007086335581306e+01 1.176460988974121946e+01 1.387015736892644746e+01 -3.146261005672017941e+00 -8.533744529998815720e-01 2.613041950439103811e+00 -1.209283892192691834e+00 1.091599103952215799e+01 3.841325879019239053e+00 -2.912788825770634915e+00 1.349891547791024848e+01 -2.076692172767701017e+00 -2.784853250731003538e+00 9.310760072000001664e-01 4.644010656398875447e+00 -2.575737582749529686e+00 -2.792996570688814462e+00 -1.131282913867386775e+00 -1.192481185544023825e+00 -7.517232818554517415e+00 -8.754690677781638897e+00 -4.599425220572999629e-01 -2.180317753048362395e+00 -2.054327056305301991e+00 -7.670543118284689488e-01 -3.201133661010608478e+00 -3.324146391101586495e+00 -1.915742790163857956e-01 -3.055473657848326585e-01 1.012552171502220766e+00 -1.387409783911970340e+00 -1.321399033037458759e+00 1.517947424277988944e+01 -3.535787601020913051e+00 -2.628962743235426780e-01 1.139897729214046507e+01 2.252129093284498673e-01 -1.429602961315987963e+00 2.636783179252188969e-01 -7.212723932316662534e+00 -3.660779259364615346e+00 -4.484317825364838939e+01 -6.422713355376155953e+00 7.780579973398018545e+00 -1.103635251364134433e+02 -1.521611578518680341e+00 1.488808549492839539e+01 1.243664885984252733e+00 0.000000000000000000e+00 0.000000000000000000e+00 0.000000000000000000e+00 4.099459869793810477e-15 1.497188575309220891e-15 0.000000000000000000e+00 -5.211867781555496077e-15 1.456510534002929098e-15 0.000000000000000000e+00 -2.083399950750472864e-15 2.513174655924215752e-15 3.146985427213620535e-15 0.000000000000000000e+00 0.000000000000000000e+00 0.000000000000000000e+00 0.000000000000000000e+00 3.979889332754341271e-16 2.587132716218487767e-15 0.000000000000000000e+00 2.320526100856115018e-15 8.715220556574509118e-15 -2.083399950750472864e-15 2.513174655924215752e-15 3.146985427213620535e-15 0.000000000000000000e+00 -5.005216371288900477e-16 9.552442252747702578e-16 0.000000000000000000e+00 1.732908881820927228e-15 -1.920694969369991965e-15 0.000000000000000000e+00 2.271435747152302518e-15 8.068903870638629366e-15 -2.083399950750472864e-15 2.513174655924215752e-15 3.146985427213620535e-15 0.000000000000000000e+00 0.000000000000000000e+00 0.000000000000000000e+00 0.000000000000000000e+00 1.316914434355599569e-15 -3.149941214751091351e-15 0.000000000000000000e+00 5.036636568882650077e-16 4.184856157841072125e-15 -2.083399950750472864e-15 2.513174655924215752e-15 3.146985427213620535e-15 0.000000000000000000e+00 0.000000000000000000e+00 0.000000000000000000e+00 0.000000000000000000e+00 -2.369028686441111218e-15 -6.411213680762439223e-15 0.000000000000000000e+00 1.016106638563251451e-15 1.457703795900810787e-14 2.813938595702748735e+00 -4.461932048348531410e+00 1.382256939503264670e-01 1.945184924774590840e+01 -1.142567438443552064e+01 -2.822102059329517587e+01 6.272688321624955421e+01 3.020671747683109132e+01 2.952905835494729203e+01 -7.036417864699323843e+00 -4.876334603481258512e+01 -4.738365141371731681e+01 0.000000000000000000e+00 0.000000000000000000e+00 0.000000000000000000e+00 3.134686772020094744e-15 -1.551069715424929422e-15 0.000000000000000000e+00 2.850813589295947772e-16 1.985709837740017444e-16 0.000000000000000000e+00 -3.029180461628144335e-17 -5.599187100921534198e-16 4.573214786213632468e-16 0.000000000000000000e+00 0.000000000000000000e+00 0.000000000000000000e+00 0.000000000000000000e+00 2.305170652453839237e-15 1.134168251782329026e-15 0.000000000000000000e+00 -1.690796545112906716e-15 3.767086137300134742e-15 -3.029180461628144335e-17 -5.599187100921534198e-16 4.573214786213632468e-16 0.000000000000000000e+00 -2.310991112202967743e-15 -1.578159164234628752e-15 0.000000000000000000e+00 -1.641006840893994363e-15 -1.181854608989054657e-15 0.000000000000000000e+00 -2.865251887607925758e-16 3.978223301432115326e-16 -3.029180461628144335e-17 -5.599187100921534198e-16 4.573214786213632468e-16 0.000000000000000000e+00 0.000000000000000000e+00 0.000000000000000000e+00 0.000000000000000000e+00 6.039359179032446456e-16 3.528671126507599177e-15 0.000000000000000000e+00 3.376369298682419868e-15 3.240636009687616472e-16 -3.029180461628144335e-17 -5.599187100921534198e-16 4.573214786213632468e-16 0.000000000000000000e+00 0.000000000000000000e+00 0.000000000000000000e+00 0.000000000000000000e+00 3.793814131485052010e-15 -9.415410373635417283e-17 0.000000000000000000e+00 2.416724593648801880e-15 3.481241654109758873e-18
7.484456560342192688e+02 -3.081832452765738695e-01 -7.190785081081034757e-01 -4.580103308367654336e+00 2.804919954295340134e-01 -8.815584497482387150e+00 1.222238859419336876e+01 1.125273408054809288e+01 1.373460663210899213e+01 -3.127961526232766687e+00 -7.586894456482111693e-01 2.631750823117640969e+00 -1.205721792231218670e+00 1.096409845128401273e+01 3.868802346988355012e+00 -2.547463660532749863e+00 1.314043463795178823e+01 -1.809112913675898771e+00 -2.689619141896405718e+00 1.029584009281596657e+00 4.577645872766829882e+00 -2.540539955239889292e+00 -2.775616685740311951e+00 -1.140674746301024500e+00 -1.139172073593956558e+00 -7.384003889538734988e+00 -8.757033867285072049e+00 -4.473163617462265207e-01 -2.134661756999905791e+00 -2.057612518945429514e+00 -7.467763215968439283e-01 -3.127458743773155359e+00 -3.327224601500015755e+00 -1.975636517891514732e-01 -2.990831666728880345e-01 1.006660721896327271e+00 -1.345761901640340819e+00 -1.291707936392380018e+00 1.478744664827835820e+01 -3.697619047307691531e+00 -2.676282615048168889e-01 1.153362960000342774e+01 3.152427954138311561e-01 -1.405449205902537857e+00 1.250515059881963653e-01 -6.447710067523493294e+00 -3.255089440628525566e+00 -4.406176905315322045e+01 -6.621910879209108813e+00 7.113981999002811918e+00 -1.090368798898975911e+02 -1.484989759108065854e+00 1.433790684557738970e+01 1.490287285850572019e+00 0.000000000000000000e+00 0.000000000000000000e+00 0.000000000000000000e+00 3.830698644259036316e-15 1.470336033607384469e-15 0.000000000000000000e+00 -5.169214730466951395e-15 1.433884530060684420e-15 0.000000000000000000e+00 -1.991329466355701301e-15 2.503757877144836943e-15 3.043223110563934976e-15 0.000000000000000000e+00 0.000000000000000000e+00 0.000000000000000000e+00 0.000000000000000000e+00 3.984669795630468835e-16 2.366344744654570869e-15 0.000000000000000000e+00 2.353561358715540465e-15 8.834354078485417556e-15 -1.991329466355701301e-15 2.503757877144836943e-15 3.043223110563934976e-15 0.000000000000000000e+00 -5.005401054837138532e-16 9.074908690591144769e-16 0.000000000000000000e+00 1.736671870577526779e-15 -2.117088588085454019e-15 0.000000000000000000e+00 2.354920301407596817e-15 8.084459256111578934e-15 -1.991329466355701301e-15 2.503757877144836943e-15 3.043223110563934976e-15 0.000000000000000000e+00 0.000000000000000000e+00 0.000000000000000000e+00 0.000000000000000000e+00 1.342428336553094862e-15 -3.388461778484240765e-15 0.000000000000000000e+00 5.379392096937209718e-16 4.580821632979444667e-15 -1.991329466355701301e-15 2.503757877144836943e-15 3.043223110563934976e-15 0.000000000000000000e+00 0.000000000000000000e+00 0.000000000000000000e+00 0.000000000000000000e+00 -2.347264963139135202e-15 -6.483001980640146692e-15 0.000000000000000000e+00 1.032728420444879102e-15 1.478824832464719769e-14 2.759232550206587753e+00 -4.371984744672617218e+00 4.005752718267796553e-02 1.947715652313634394e+01 -1.104784872918519412e+01 -2.794197441018391359e+01 6.288303609708983544e+01 2.986932878651351331e+01 3.061239981558904333e+01 -5.997118729204511389e+00 -4.709997051117854028e+01 -4.575660488048119845e+01 0.000000000000000000e+00 0.000000000000000000e+00 0.000000000000000000e+00 3.109723233572996556e-15 -1.539627761987850735e-15 0.000000000000000000e+00 2.336428204141183217e-16 2.065603633797137018e-16 0.000000000000000000e+00 -7.404125180503029337e-17 -5.904092683432616377e-16 4.737377478891159893e-16 0.000000000000000000e+00 0.000000000000000000e+00 0.000000000000000000e+00 0.000000000000000000e+00 2.311880014789515745e-15 1.106077938596396352e-15 0.000000000000000000e+00 -1.655876478737198406e-15 3.535798680990245485e-15 -7.404125180503029337e-17 -5.904092683432616377e-16 4.737377478891159893e-16 0.000000000000000000e+00 -2.322289014102635512e-15 -1.530106137606517752e-15 0.000000000000000000e+00 -1.694787049553069289e-15 -1.273870774909444476e-15 0.000000000000000000e+00 -2.868769939056461894e-16 4.558589327592239049e-16 -7.404125180503029337e-17 -5.904092683432616377e-16 4.737377478891159893e-16 0.000000000000000000e+00 0.000000000000000000e+00 0.000000000000000000e+00 0.000000000000000000e+00 6.219653674714554361e-16 3.583577979579804674e-15 0.000000000000000000e+00 3.373315398333026266e-15 4.971801854276207804e-16 -7.404125180503029337e-17 -5.904092683432616377e-16 4.737377478891159893e-16 0.000000000000000000e+00 0.000000000000000000e+00 0.000000000000000000e+00 0.000000000000000000e+00 3.768086399253913418e-15 -1.509184159940504891e-16 0.000000000000000000e+00 2.343518615674955030e-15 -5.715400697577369718e-17
